<svg width="415" height="325" viewBox="0 0 415 325" fill="none" xmlns="http://www.w3.org/2000/svg">
<path d="M46.1667 240.02C40.7628 248.334 14.4706 276.739 2 289.902C6.67648 289.902 226.99 317.442 227.51 317.961C227.796 318.247 228.556 320.268 230.483 324.196C236.42 319.866 248.71 311.102 250.373 310.687C252.451 310.167 297.657 304.971 304.412 303.412C311.167 301.853 312.726 299.255 313.245 289.383C313.765 279.51 313.765 260.804 314.285 259.245C314.7 257.998 324.504 246.602 329.353 241.059C329.353 237.249 329.561 229.524 330.393 229.108C330.608 229 332.371 228.656 335.069 228.173C334.238 227.424 333.337 225.367 332.991 224.432C330.393 224.951 327.275 223.912 324.677 222.873C322.079 221.834 321.04 219.236 322.598 217.677C324.157 216.118 323.118 212.481 324.677 211.441C326.236 210.402 330.393 208.843 331.432 207.804C332.471 206.765 329.873 207.285 328.314 206.765C326.755 206.245 322.598 209.363 316.883 211.441C311.167 213.52 297.138 214.559 295.059 214.039C292.981 213.52 293.5 211.961 295.059 210.402C296.618 208.843 296.618 206.245 297.138 204.687C297.657 203.128 302.334 202.088 307.01 199.49C311.687 196.892 315.324 189.618 321.04 181.824C326.755 174.03 339.745 167.794 344.422 165.196C349.098 162.598 356.893 152.726 358.971 151.686C361.049 150.647 367.285 149.088 371.961 148.569C376.638 148.049 387.549 151.167 390.147 152.726C392.746 154.284 404.697 162.079 408.853 162.598C413.01 163.118 413.53 162.079 414.049 156.883C414.569 151.686 402.099 135.579 398.461 128.824C395.551 123.42 389.974 110.291 387.549 104.402C380.795 104.922 374.04 96.0883 368.324 82.5785C362.608 69.0687 362.608 54.0001 363.647 50.3628C364.687 46.7255 358.451 38.4118 356.893 34.2549C355.334 30.0981 307.53 6.19608 299.216 4.11765C290.902 2.03922 242.579 1 234.265 1C225.951 1 208.804 4.11765 194.775 8.79413C180.745 13.4706 157.883 25.4216 150.608 34.2549C143.333 43.0883 129.824 84.657 126.186 92.9707C122.549 101.284 114.235 115.314 113.716 122.069C113.196 128.824 108 139.735 102.804 148.569C97.608 157.402 87.2158 174.03 84.6177 183.383C82.0197 192.736 77.3432 198.451 69.0295 205.206C60.7158 211.961 52.9216 229.628 46.1667 240.02Z" fill="#00EAB2" fill-opacity="0.06" stroke="#080E54"/>
</svg>
