<svg width="252" height="209" viewBox="0 0 252 209" fill="none" xmlns="http://www.w3.org/2000/svg">
<path d="M167.42 21.2647C170.018 26.9804 173.136 31.6569 173.655 35.8137C174.175 39.9706 177.293 55.0393 177.293 60.2354C177.293 65.4314 176.773 73.2255 184.567 84.6569C192.361 96.0883 197.557 104.922 204.832 106.48C212.106 108.039 209.508 108.039 208.989 111.677C208.469 115.314 206.91 122.588 208.989 126.226C211.067 129.863 216.783 136.618 218.342 140.775C219.9 144.932 225.097 148.569 230.293 149.088C235.489 149.608 238.606 150.128 237.567 151.167C236.528 152.206 233.41 157.922 234.45 162.598C235.489 167.275 236.528 170.392 235.489 169.873C234.449 169.353 230.293 164.677 230.293 166.235C230.293 167.794 231.332 170.392 232.891 171.432C234.45 172.471 233.41 176.628 231.332 175.069C229.253 173.51 227.175 172.471 227.175 175.069V175.069C227.175 177.667 227.175 182.863 229.253 181.824C231.332 180.785 234.969 177.667 235.489 176.108C236.008 174.549 236.528 178.186 236.528 180.784C236.528 183.383 236.008 188.579 237.567 193.775C239.126 198.971 244.322 206.245 246.401 207.285C247.041 207.605 247.804 207.832 248.561 207.991C249.751 208.114 250.809 208.231 251.597 208.324C250.958 208.324 249.768 208.245 248.561 207.991C245.3 207.656 241.042 207.285 238.606 207.285C235.281 207.285 114.939 207.977 55.1844 208.324C55.1844 205.899 53.9374 200.322 48.9492 197.412C42.7139 193.775 31.8021 181.304 28.6844 159.481C25.5668 137.657 16.2138 110.637 8.41968 97.6472C4.9189 91.8125 2.57127 87.3406 1 84.1373C6.9373 79.8073 19.2276 71.0432 20.8903 70.6275C22.9688 70.1079 68.1747 64.9118 74.9296 63.353C81.6845 61.7941 83.2433 59.1961 83.7629 49.3235C84.2825 39.451 84.2825 20.7451 84.8021 19.1863C85.2178 17.9392 95.021 6.54249 99.8707 1C102.469 3.77125 107.665 9.83331 107.665 11.9117C107.665 14.5098 108.185 17.6275 107.665 21.2647C107.145 24.902 108.185 24.3823 111.822 23.8627C114.732 23.447 136.936 19.5327 147.675 17.6274L165.566 16.0686C166.043 17.8196 166.637 19.5422 167.42 21.2647Z" fill="#00EAB2" fill-opacity="0.06" stroke="#080E54"/>
</svg>
