<svg width="80" height="116" viewBox="0 0 80 116" fill="none" xmlns="http://www.w3.org/2000/svg">
<path d="M39.7256 8.41219C44.9216 15.6867 60.5099 38.0299 65.706 45.3044C70.9021 52.5789 79.7354 62.4515 79.2158 72.324C78.6962 82.1966 74.5393 90.5103 67.7844 98.8241C61.0295 107.138 50.1177 115.971 44.9216 114.932C39.7256 113.893 36.6079 115.452 34.0099 111.814C31.4118 108.177 18.4216 79.0789 16.3432 74.9221C14.2647 70.7652 10.6275 65.0495 7.50983 62.9711C4.39218 60.8926 0.754921 59.3338 1.27453 57.775C1.729 56.4116 7.74919 52.6631 10.9897 50.7018C11.4526 50.4216 11.8588 50.1779 12.1839 49.9828L12.184 49.9827L12.1871 49.9809C14.7852 48.422 17.3832 47.9024 18.4224 46.3436C19.4616 44.7848 19.4616 40.1083 19.9813 38.5495C20.5009 36.9907 20.5009 36.4711 19.4616 35.9514C18.4224 35.4318 15.3048 34.3926 13.2263 34.3926C11.1479 34.3926 10.1087 33.873 11.1479 32.8338C12.1871 31.7946 14.2656 29.7161 16.8636 30.7554C19.4616 31.7946 23.6185 34.9122 24.6577 34.9122C25.6969 34.9122 28.295 35.9514 30.3734 33.873C32.4519 31.7946 31.4126 31.275 30.893 30.2357C30.3734 29.1965 31.4126 28.1573 32.9715 27.1181C34.5303 26.0789 41.2852 24.5201 39.2068 21.4024C37.1283 18.2848 34.5303 17.7651 31.9323 18.2848C29.3342 18.8044 26.2166 19.8436 25.6969 18.2848C25.1773 16.7259 25.6969 8.41219 25.1773 8.41219C24.6577 8.41219 19.9813 8.9318 19.4616 8.41219C18.942 7.89259 19.9813 4.77494 23.0989 2.6965C26.2166 0.618068 31.4126 1.13768 33.4911 2.17689C35.5695 3.21611 39.2051 7.68208 39.7256 8.41219Z" fill="#00EAB2" fill-opacity="0.06"/>
<path d="M1.27453 57.775C0.754921 59.3338 4.39218 60.8926 7.50983 62.9711C10.6275 65.0495 14.2647 70.7652 16.3432 74.9221C18.4216 79.0789 31.4118 108.177 34.0099 111.814C36.6079 115.452 39.7256 113.893 44.9216 114.932C50.1177 115.971 61.0295 107.138 67.7844 98.8241C74.5393 90.5103 78.6962 82.1966 79.2158 72.324C79.7354 62.4515 70.9021 52.5789 65.706 45.3044C60.5099 38.0299 44.9216 15.6867 39.7256 8.41219C39.2051 7.68208 35.5695 3.21611 33.4911 2.17689C31.4126 1.13768 26.2166 0.618068 23.0989 2.6965C19.9813 4.77494 18.942 7.89259 19.4616 8.41219C19.9813 8.9318 24.6577 8.41219 25.1773 8.41219C25.6969 8.41219 25.1773 16.7259 25.6969 18.2848C26.2166 19.8436 29.3342 18.8044 31.9323 18.2848C34.5303 17.7651 37.1283 18.2848 39.2068 21.4024C41.2852 24.5201 34.5303 26.0789 32.9715 27.1181C31.4126 28.1573 30.3734 29.1965 30.893 30.2357C31.4126 31.275 32.4519 31.7946 30.3734 33.873C28.295 35.9514 25.6969 34.9122 24.6577 34.9122C23.6185 34.9122 19.4616 31.7946 16.8636 30.7554C14.2656 29.7161 12.1871 31.7946 11.1479 32.8338C10.1087 33.873 11.1479 34.3926 13.2263 34.3926C15.3048 34.3926 18.4224 35.4318 19.4616 35.9514C20.5009 36.4711 20.5009 36.9907 19.9813 38.5495C19.4616 40.1083 19.4616 44.7848 18.4224 46.3436C17.3832 47.9024 14.7852 48.422 12.1871 49.9809M1.27453 57.775C1.79414 56.2162 9.58909 51.5397 12.1871 49.9809M1.27453 57.775C1.79393 56.2168 9.58284 51.5434 12.184 49.9827L12.1871 49.9809" stroke="#080E54"/>
</svg>
