<svg width="32" height="25" viewBox="0 0 32 25" fill="none" xmlns="http://www.w3.org/2000/svg">
<path d="M11.5547 4.63727L7.91747 1C6.01224 2.73203 1.99372 6.40392 1.16235 7.23529C0.330973 8.06666 2.8944 11.3922 4.28002 12.951C5.49562 15.2809 7.49345 19.2578 9.10888 22.8235C11.3098 23.3432 16.5429 24.0706 19.8684 22.8235C23.1939 21.5765 27.8673 19.3842 29.7883 18.4439C29.9036 16.1753 30.082 14.3631 30.2605 13.4706C30.7801 10.8726 31.2999 7.23529 30.7803 7.23529C30.2607 7.23529 26.6232 8.27452 24.0251 8.79413C21.4271 9.31374 12.5939 5.67649 11.5547 4.63727Z" fill="#00EAB2" fill-opacity="0.06" stroke="#080E54"/>
</svg>
