<svg width="40" height="26" viewBox="0 0 40 26" fill="none" xmlns="http://www.w3.org/2000/svg">
<path d="M11.9116 17.6274C11.392 19.7059 3.59804 20.7451 1 21.2647C1.34641 22.2 2.247 24.2575 3.07837 25.0058C10.7682 23.6278 26.0555 21.1163 34.7744 19.7059C33.3888 18.147 30.8254 14.8215 31.6567 13.9902C32.4881 13.1588 36.5066 9.48691 38.4119 7.75488C37.8923 7.23527 33.2157 1 32.696 1C32.1764 1 24.3822 9.31369 23.343 10.3529C22.3038 11.3921 20.745 10.8725 19.7058 10.3529C18.6666 9.8333 16.5882 9.31369 14.5098 10.3529C12.4313 11.3921 12.4312 15.549 11.9116 17.6274Z" fill="#00EAB2" fill-opacity="0.06" stroke="#080E54"/>
</svg>
