<svg width="50" height="43" viewBox="0 0 50 43" fill="none" xmlns="http://www.w3.org/2000/svg">
<path d="M2.03931 7.23535C1.20793 7.65104 1 15.3759 1 19.1863C3.59804 21.9576 8.79419 28.0196 8.79419 30.0981C8.79419 32.6961 9.3138 35.8138 8.79419 39.451C8.27458 43.0883 9.31391 42.5687 12.9512 42.0491C15.861 41.6334 38.0656 37.719 48.8042 35.8138C48.1114 30.9641 46.5179 20.4334 45.6865 17.1079C45.3414 15.7274 44.3874 13.4035 43.2407 10.8726C41.6253 7.30683 39.6275 3.32989 38.4119 1C29.6929 2.41042 14.4057 4.92189 6.71582 6.29993C4.01799 6.78338 2.25523 7.12739 2.03931 7.23535Z" fill="#00EAB2" fill-opacity="0.06" stroke="#080E54"/>
</svg>
