<svg width="589" height="449" viewBox="0 0 589 449" fill="none" xmlns="http://www.w3.org/2000/svg">
<path d="M455.167 209.336C451.01 206.218 445.814 206.218 441.657 205.699C440.618 205.58 438.02 205.699 437.5 205.699C436.98 205.699 436.98 199.983 437.5 198.424C438.02 196.865 440.098 194.267 442.176 193.748C444.255 193.228 447.892 194.787 452.049 195.826C456.206 196.865 461.402 201.022 464 204.14C466.598 207.257 469.716 214.532 469.716 216.091C469.716 217.65 469.196 218.169 466.598 217.65C464 217.13 459.324 212.453 455.167 209.336Z" fill="#00EAB2" fill-opacity="0.06"/>
<path d="M455.167 209.336C451.01 206.218 445.814 206.218 441.657 205.699C440.618 205.58 438.02 205.699 437.5 205.699C436.98 205.699 436.98 199.983 437.5 198.424C438.02 196.865 440.098 194.267 442.176 193.748C444.255 193.228 447.892 194.787 452.049 195.826C456.206 196.865 461.402 201.022 464 204.14C466.598 207.257 469.716 214.532 469.716 216.091C469.716 217.65 469.196 218.169 466.598 217.65C464 217.13 459.324 212.453 455.167 209.336Z" fill="#00EAB2" fill-opacity="0.06"/>
<path d="M455.167 209.336C451.01 206.218 445.814 206.218 441.657 205.699C440.618 205.58 438.02 205.699 437.5 205.699C436.98 205.699 436.98 199.983 437.5 198.424C438.02 196.865 440.098 194.267 442.176 193.748C444.255 193.228 447.892 194.787 452.049 195.826C456.206 196.865 461.402 201.022 464 204.14C466.598 207.257 469.716 214.532 469.716 216.091C469.716 217.65 469.196 218.169 466.598 217.65C464 217.13 459.324 212.453 455.167 209.336Z" fill="#00EAB2" fill-opacity="0.06"/>
<path d="M455.167 209.336C451.01 206.218 445.814 206.218 441.657 205.699C440.618 205.58 438.02 205.699 437.5 205.699C436.98 205.699 436.98 199.983 437.5 198.424C438.02 196.865 440.098 194.267 442.176 193.748C444.255 193.228 447.892 194.787 452.049 195.826C456.206 196.865 461.402 201.022 464 204.14C466.598 207.257 469.716 214.532 469.716 216.091C469.716 217.65 469.196 218.169 466.598 217.65C464 217.13 459.324 212.453 455.167 209.336Z" fill="#00EAB2" fill-opacity="0.06"/>
<path d="M637.951 195.826C633.794 192.708 628.598 192.708 624.441 192.189C623.402 192.07 620.804 192.189 620.284 192.189C619.765 192.189 619.765 186.473 620.284 184.914C620.804 183.355 622.882 180.757 624.961 180.238C627.039 179.718 630.676 181.277 634.833 182.316C638.99 183.355 644.186 187.512 646.784 190.63C649.382 193.748 652.5 201.022 652.5 202.581C652.5 204.14 651.98 204.659 649.382 204.14C646.784 203.62 642.108 198.944 637.951 195.826Z" fill="#00EAB2" fill-opacity="0.06"/>
<path d="M637.951 195.826C633.794 192.708 628.598 192.708 624.441 192.189C623.402 192.07 620.804 192.189 620.284 192.189C619.765 192.189 619.765 186.473 620.284 184.914C620.804 183.355 622.882 180.757 624.961 180.238C627.039 179.718 630.676 181.277 634.833 182.316C638.99 183.355 644.186 187.512 646.784 190.63C649.382 193.748 652.5 201.022 652.5 202.581C652.5 204.14 651.98 204.659 649.382 204.14C646.784 203.62 642.108 198.944 637.951 195.826Z" fill="#00EAB2" fill-opacity="0.06"/>
<path d="M637.951 195.826C633.794 192.708 628.598 192.708 624.441 192.189C623.402 192.07 620.804 192.189 620.284 192.189C619.765 192.189 619.765 186.473 620.284 184.914C620.804 183.355 622.882 180.757 624.961 180.238C627.039 179.718 630.676 181.277 634.833 182.316C638.99 183.355 644.186 187.512 646.784 190.63C649.382 193.748 652.5 201.022 652.5 202.581C652.5 204.14 651.98 204.659 649.382 204.14C646.784 203.62 642.108 198.944 637.951 195.826Z" fill="#00EAB2" fill-opacity="0.06"/>
<path d="M637.951 195.826C633.794 192.708 628.598 192.708 624.441 192.189C623.402 192.07 620.804 192.189 620.284 192.189C619.765 192.189 619.765 186.473 620.284 184.914C620.804 183.355 622.882 180.757 624.961 180.238C627.039 179.718 630.676 181.277 634.833 182.316C638.99 183.355 644.186 187.512 646.784 190.63C649.382 193.748 652.5 201.022 652.5 202.581C652.5 204.14 651.98 204.659 649.382 204.14C646.784 203.62 642.108 198.944 637.951 195.826Z" fill="#00EAB2" fill-opacity="0.06"/>
<path d="M332.991 224.432C330.393 224.951 327.275 223.912 324.677 222.873C322.079 221.834 321.04 219.236 322.598 217.677C324.157 216.118 323.118 212.481 324.677 211.441C326.236 210.402 330.393 208.843 331.432 207.804C332.471 206.765 329.873 207.285 328.314 206.765C326.755 206.245 322.598 209.363 316.883 211.441C311.167 213.52 297.138 214.559 295.059 214.039C292.981 213.52 293.5 211.961 295.059 210.402C296.618 208.843 296.618 206.245 297.138 204.687C297.657 203.128 302.334 202.088 307.01 199.49C311.687 196.892 315.324 189.618 321.04 181.824C326.755 174.03 339.745 167.794 344.422 165.196C349.098 162.598 356.893 152.726 358.971 151.686C361.049 150.647 367.285 149.088 371.961 148.569C376.638 148.049 387.549 151.167 390.147 152.726C392.746 154.284 404.697 162.079 408.853 162.598C413.01 163.118 413.53 162.079 414.049 156.883C414.569 151.686 402.099 135.579 398.461 128.824C395.551 123.42 389.974 110.291 387.549 104.402C380.795 104.922 374.04 96.0883 368.324 82.5785C362.608 69.0687 362.608 54.0001 363.647 50.3628C364.687 46.7255 358.451 38.4118 356.893 34.2549C355.334 30.0981 307.53 6.19608 299.216 4.11765C290.902 2.03922 242.579 1 234.265 1C225.951 1 208.804 4.11765 194.775 8.79413C180.745 13.4706 157.883 25.4216 150.608 34.2549C143.333 43.0883 129.824 84.657 126.186 92.9707C122.549 101.284 114.235 115.314 113.716 122.069C113.196 128.824 108 139.735 102.804 148.569C97.608 157.402 87.2158 174.03 84.6177 183.383C82.0197 192.736 77.3432 198.451 69.0295 205.206C60.7158 211.961 52.9216 229.628 46.1667 240.02C40.7628 248.334 14.4706 276.739 2 289.902C6.67648 289.902 226.99 317.442 227.51 317.961C227.796 318.247 228.556 320.268 230.483 324.196M332.991 224.432C335.589 223.912 343.383 222.873 343.902 220.794C344.422 218.716 344.422 214.559 346.5 213.52C348.579 212.481 350.657 213 351.696 213.52C352.736 214.039 354.295 214.559 355.334 213.52C356.373 212.481 364.167 204.167 364.687 204.167C365.206 204.167 369.883 210.402 370.402 210.922M332.991 224.432C333.337 225.367 334.238 227.424 335.069 228.173M370.402 210.922C370.922 211.441 373 213.52 374.04 214.559C375.079 215.598 383.912 219.236 386.51 218.716C389.108 218.196 392.746 217.157 393.265 217.157C393.785 217.157 393.265 220.794 392.746 223.392C392.567 224.285 392.389 226.097 392.273 228.366M370.402 210.922C368.497 212.654 364.479 216.326 363.647 217.157C362.816 217.988 365.38 221.314 366.765 222.873M230.483 324.196C232.054 327.4 234.401 331.872 237.902 337.706C245.696 350.696 255.049 377.716 258.167 399.54C261.285 421.363 272.196 433.834 278.432 437.471C283.42 440.381 284.667 445.958 284.667 448.383C344.422 448.036 464.763 447.344 468.089 447.344C471.414 447.344 478.135 448.036 481.079 448.383C480.04 448.383 477.546 448.175 475.883 447.344C473.804 446.304 468.608 439.03 467.05 433.834C465.491 428.638 466.01 423.442 466.01 420.844C466.01 418.246 465.491 414.608 464.971 416.167C464.452 417.726 460.814 420.844 458.736 421.883C456.657 422.922 456.657 417.726 456.657 415.128C456.657 412.53 458.736 413.569 460.814 415.128C462.893 416.687 463.932 412.53 462.373 411.491C460.814 410.451 459.775 407.853 459.775 406.295C459.775 404.736 463.932 409.412 464.971 409.932C466.01 410.451 464.971 407.334 463.932 402.657C462.893 397.981 466.01 392.265 467.05 391.226C468.089 390.187 464.971 389.667 459.775 389.147C454.579 388.628 449.383 384.991 447.824 380.834C446.265 376.677 440.55 369.922 438.471 366.285C436.393 362.647 437.951 355.373 438.471 351.736C438.991 348.098 441.589 348.098 434.314 346.54C427.04 344.981 421.844 336.147 414.049 324.716C406.255 313.285 406.775 305.491 406.775 300.294C406.775 295.098 403.657 280.03 403.138 275.873C402.618 271.716 399.5 267.04 396.902 261.324C396.119 259.601 395.525 257.879 395.049 256.128M230.483 324.196C236.42 319.866 248.71 311.102 250.373 310.687C252.451 310.167 297.657 304.971 304.412 303.412C311.167 301.853 312.726 299.255 313.245 289.383C313.765 279.51 313.765 260.804 314.285 259.245C314.7 257.998 324.504 246.602 329.353 241.059M329.353 241.059C329.353 237.249 329.561 229.524 330.393 229.108C330.608 229 332.371 228.656 335.069 228.173M329.353 241.059C331.951 243.83 337.147 249.892 337.147 251.971C337.147 254.569 337.667 257.687 337.147 261.324C336.628 264.961 337.667 264.441 341.304 263.922C344.214 263.506 366.419 259.592 377.157 257.687M366.765 222.873C367.981 225.203 369.978 229.18 371.594 232.745M366.765 222.873C358.046 224.283 342.759 226.795 335.069 228.173M377.157 257.687C376.464 252.837 374.871 242.306 374.04 238.981C373.695 237.6 372.74 235.276 371.594 232.745M377.157 257.687L395.049 256.128M395.049 256.128C393.944 252.069 393.472 247.857 392.746 243.138C392.063 238.703 392.053 232.701 392.273 228.366M371.594 232.745C373.795 233.265 379.028 233.992 382.353 232.745C385.679 231.498 390.352 229.306 392.273 228.366M441.657 205.699C445.814 206.218 451.01 206.218 455.167 209.336C459.324 212.453 464 217.13 466.598 217.65C469.196 218.169 469.716 217.65 469.716 216.091C469.716 214.532 466.598 207.257 464 204.14C461.402 201.022 456.206 196.865 452.049 195.826C447.892 194.787 444.255 193.228 442.176 193.748C440.098 194.267 438.02 196.865 437.5 198.424C436.98 199.983 436.98 205.699 437.5 205.699C438.02 205.699 440.618 205.58 441.657 205.699ZM624.441 192.189C628.598 192.708 633.794 192.708 637.951 195.826C642.108 198.944 646.784 203.62 649.382 204.14C651.98 204.659 652.5 204.14 652.5 202.581C652.5 201.022 649.382 193.748 646.784 190.63C644.186 187.512 638.99 183.355 634.833 182.316C630.676 181.277 627.039 179.718 624.961 180.238C622.882 180.757 620.804 183.355 620.284 184.914C619.765 186.473 619.765 192.189 620.284 192.189C620.804 192.189 623.402 192.07 624.441 192.189Z" stroke="#080E54"/>
</svg>
