<svg width="17" height="17" viewBox="0 0 17 17" fill="none" xmlns="http://www.w3.org/2000/svg">
<path d="M4.75 1.9375C2.48687 3.22844 1 5.70813 1 8.5C1 9.98336 1.43987 11.4334 2.26398 12.6668C3.08809 13.9001 4.25943 14.8614 5.62987 15.4291C7.00032 15.9968 8.50832 16.1453 9.96318 15.8559C11.418 15.5665 12.7544 14.8522 13.8033 13.8033C14.8522 12.7544 15.5665 11.418 15.8559 9.96318C16.1453 8.50832 15.9968 7.00032 15.4291 5.62987C14.8614 4.25943 13.9001 3.08809 12.6668 2.26398C11.4334 1.43987 9.98336 1 8.5 1" stroke="#005CBE" stroke-width="1.5" stroke-linecap="round" stroke-linejoin="round"/>
<path d="M4.75 5.6875V1.9375H1" stroke="#005CBE" stroke-width="1.5" stroke-linecap="round" stroke-linejoin="round"/>
</svg>
